<svg role="img" viewBox="0 0 24 24" xmlns="http://www.w3.org/2000/svg"><title>GitHub</title><path d="M12 .297C5.37.297 0 5.667 0 12.297c0 5.303 3.438 9.8 8.205 11.385.6.113.82-.258.82-.577 0-.285-.01-1.04-.015-2.04-3.338.725-4.043-1.61-4.043-1.61-.546-1.387-1.333-1.757-1.333-1.757-1.09-.745.083-.73.083-.73 1.205.085 1.84 1.238 1.84 1.238 1.07 1.835 2.807 1.305 3.492.998.108-.775.418-1.305.762-1.605-2.665-.303-5.467-1.333-5.467-5.93 0-1.31.468-2.382 1.236-3.222-.123-.303-.535-1.523.117-3.177 0 0 1.008-.322 3.3 1.23a11.52 11.52 0 0 1 3.003-.404c1.018.005 2.045.138 3.003.404 2.29-1.552 3.297-1.23 3.297-1.23.653 1.654.242 2.874.118 3.177.77.84 1.235 1.912 1.235 3.222 0 4.61-2.807 5.624-5.48 5.92.43.37.813 1.102.813 2.222 0 1.605-.015 2.898-.015 3.292 0 .322.216.695.825.577C20.565 22.092 24 17.597 24 12.297c0-6.63-5.373-12-12-12"/></svg>
